# xmcd
# 
# Track frame offsets:
#     150
#     22964
#     42144
#     61115
#     82045
#     105224
#     123692
# 
# Disc length: 1816
# 
# Revision: 0
# Processed by: cddbd v1.5.2PL0 Copyright (c) Steve Scherf et al.
# Submitted via: fre:ac v1.0.17
# 
DISCID=4c071607
DTITLE=Erienne Romaine - Srenade Me
DYEAR=2004
DGENRE=Blues
TTITLE0=Do You Know What It Means To Miss New Orleans
TTITLE1=Summertime
TTITLE2=Bye Bye Blackbird
TTITLE3=If You Could See Me Now
TTITLE4=Agua De Beber
TTITLE5=Fly Me To The Moon
TTITLE6=Serenade Me
EXTD=
EXTT0=
EXTT1=
EXTT2=
EXTT3=
EXTT4=
EXTT5=
EXTT6=
PLAYORDER=
